<svg xmlns="http://www.w3.org/2000/svg" width="128" height="128" viewBox="0 0 1024 1024">
  <path fill="#0076CE" d="M512 0C229.2 0 0 229.2 0 512s229.2 512 512 512 512-229.2 512-512S794.8 0 512 0zm0 977.5c-257.1 0-465.5-208.4-465.5-465.5S254.9 46.5 512 46.5 977.5 254.9 977.5 512 769.1 977.5 512 977.5z"/>
  <path fill="#0076CE" d="M185.3 643.5h77.8V392h-77.8v251.5zm165.7-164.7v-86.8h110.1v34h-66.2v49.1H449v34.4h-54v53.1h69v35H307.2v-252c43.8 0 88.5-.2 110.4 46.8l-66.6 86.4zm233.1 164.7V392h43.8v218.1h61.2v33.4H584.1zm122.9 0V392h43.8v218.1h61.2v33.4h-105zM229.1 426h34.6v183.1h-34.6V426zm0 0c62 0 94.6 42 94.6 91.5s-32.5 91.6-94.6 91.6V426z"/>
  <path fill="#0076CE" d="M433.8 554l47.9-61.9-46.7-58.4 27.6-21.7 64 80.5-65.5 83.3-27.3-21.8z"/>
</svg>
