<svg xmlns="http://www.w3.org/2000/svg" width="64" height="64" fill="none"><g clip-path="url(#a)"><path fill="#0C0C0C" d="M32 4C16.536 4 4 16.536 4 32s12.536 28 28 28 28-12.535 28-28S47.465 4 32 4m5.624 39.909c-3.142 4.886 3.458 9.043 0 10.679-3.317 1.57-11.868.047-15.302-1.653C14.7 49.163 9.475 41.015 9.476 31.741c0-12.784 9.8-27.042 30.352-22.035 11.087 2.7 16.687 13.557 14.177 19.67-2.625 6.39-12.044 7.788-16.38 14.533z"/></g><defs><clipPath id="a"><path fill="#fff" d="M4 4h56v56H4z"/></clipPath></defs></svg>